<?xml version="1.0" encoding="utf-8"?>
<svg width="450" height="144" viewBox="0 0 450 144" class="css-1j8o68f" xmlns="http://www.w3.org/2000/svg">
  <defs id="SvgjsDefs2083">
    <linearGradient id="SvgjsLinearGradient2092">
      <stop id="SvgjsStop2093" stop-color="#fbb040" offset="0"/>
      <stop id="SvgjsStop2094" stop-color="#f9ed32" offset="1"/>
    </linearGradient>
    <linearGradient id="SvgjsLinearGradient2095">
      <stop id="SvgjsStop2096" stop-color="#fbb040" offset="0"/>
      <stop id="SvgjsStop2097" stop-color="#f9ed32" offset="1"/>
    </linearGradient>
    <linearGradient id="SvgjsLinearGradient2098">
      <stop id="SvgjsStop2099" stop-color="#fbb040" offset="0"/>
      <stop id="SvgjsStop2100" stop-color="#f9ed32" offset="1"/>
    </linearGradient>
    <linearGradient id="SvgjsLinearGradient2101">
      <stop id="SvgjsStop2102" stop-color="#fbb040" offset="0"/>
      <stop id="SvgjsStop2103" stop-color="#f9ed32" offset="1"/>
    </linearGradient>
  </defs>
  <g id="SvgjsG2084" featurekey="symbolContainer" transform="matrix(0.7181758491234574,0,0,0.7181758491234574,306,0)" fill="url(#SvgjsLinearGradient2092)">
    <path xmlns="http://www.w3.org/2000/svg" d="M100.254 0C44.974 0 0 44.974 0 100.254s44.974 100.254 100.254 100.254c55.28 0 100.254-44.974 100.254-100.254S155.534 0 100.254 0zm0 195.508C47.731 195.508 5 152.777 5 100.254S47.731 5 100.254 5s95.254 42.73 95.254 95.254-42.731 95.254-95.254 95.254z"/>
  </g>
  <g id="SvgjsG2085" featurekey="monogramFeature-0" transform="matrix(0.8570208870605358,0,0,0.8570208870605358,344.1257817204045,34.52205562493803)" fill="url(#SvgjsLinearGradient2095)">
    <path d="M68.7 26.228 l8.7169 0 l-27.051 36.07 l-10.564 -14.083 l-10.562 14.083 l-27.053 -36.07 l8.7173 0 l18.337 24.448 l6.2034 -8.2722 l-12.132 -16.175 l8.7173 0 l7.7736 10.364 l7.7724 -10.364 l8.7165 0 l-12.131 16.175 l6.2046 8.2722 z"/>
  </g>
  <g id="SvgjsG2086" featurekey="nameFeature-0" transform="matrix(1.13074809116799,0,0,1.13074809116799,-1.6482880037677952,24.901889730332393)" fill="url(#SvgjsLinearGradient2098)">
    <path d="M45.8 17.485 l5.8113 0 l-18.034 24.047 l-7.0424 -9.3888 l-7.0412 9.3888 l-18.036 -24.047 l5.8116 0 l12.224 16.298 l4.1356 -5.5148 l-8.088 -10.784 l5.8116 0 l5.1824 6.9096 l5.1816 -6.9096 l5.811 0 l-8.0872 10.784 l4.1364 5.5148 z M61.107600000000005 40.04922 l-4.6491 0 l0 -22.591 l4.6491 0 l0 22.591 z M73.396 22.009 c-0.43632 0.24117 -0.88236 0.64612 -0.88236 1.8193 c0 0.91448 0.29558 1.4144 1.0547 1.7822 c0.76772 0.37195 1.6239 0.39914 1.6671 0.4002 l17.067 0.06672 c2.9656 0 7.3912 1.8316 7.3912 6.8776 s-4.1128 6.8776 -6.8776 6.8776 l-24.997 0 l0 -4.6954 l24.977 0 c0.2048 -0.0070704 0.81636 -0.08422 1.3204 -0.36305 c0.43656 -0.24144 0.88256 -0.64636 0.88256 -1.8193 c0 -0.91448 -0.29558 -1.4144 -1.0547 -1.7822 c-0.7654 -0.37094 -1.6208 -0.39894 -1.6686 -0.40024 l-17.056 -0.07586 l0 0.0091406 c-2.975 0 -7.4008 -1.8316 -7.4008 -6.8776 s4.1128 -6.8776 6.8776 -6.8776 l24.997 0 l0 4.6954 l-24.976 0 c-0.20457 0.0070704 -0.81668 0.08422 -1.321 0.36305 z M138.25400000000002 21.902 l-27.18 0.000039062 l0 4.3726 l18.128 0.0675 l-0.017266 4.6956 l-18.111 -0.0675 l0 4.3564 l27.18 0 l0 4.6954 l-31.875 0 l0 -22.815 l31.875 0 l0 4.6951 z M176.81400000000002 21.93 l-27.18 0 l0 4.3648 l18.12 0 l0 4.6951 l-18.12 0 l0 9.0599 l-4.6954 0 l0 -22.815 l31.875 0 l0 4.6951 z M215.37400000000002 21.902 l-27.18 0.000039062 l0 4.3726 l18.128 0.0675 l-0.017266 4.6956 l-18.111 -0.0675 l0 4.3564 l27.18 0 l0 4.6954 l-31.875 0 l0 -22.815 l31.875 0 l0 4.6951 z M251.00700000000003 30.519199999999998 c1.947 1.9611 2.9986 4.4612 2.9607 7.0404 l-0.034258 2.3474 l-4.6948 -0.06828 l0.034258 -2.3474 c0.019375 -1.3246 -0.53308 -2.5915 -1.598 -3.664 c-1.9606 -1.9747 -5.3804 -3.0414 -9.6272 -3.014 c-4.3348 0.031641 -7.7912 1.1413 -9.7316 3.1248 c-1.0183 1.0408 -1.5467 2.2692 -1.5279 3.553 l0.034258 2.3474 l-4.6948 0.06828 l-0.034024 -2.3474 c-0.036875 -2.5256 0.9812 -4.978 2.8664 -6.9048 c0.71672 -0.73296 1.6791 -1.5172 2.948 -2.2245 c-1.0944 -0.604 -2.0646 -1.3233 -2.8878 -2.1525 c-1.947 -1.9611 -2.9985 -4.4612 -2.9609 -7.0404 l0.034258 -2.3474 l4.6948 0.06828 l-0.034258 2.3474 c-0.019375 1.3246 0.53308 2.5915 1.598 3.664 c1.9603 1.9747 5.3808 3.0474 9.6268 3.014 c4.3352 -0.031641 7.7912 -1.1413 9.7316 -3.1248 c1.0183 -1.0406 1.5464 -2.2692 1.5279 -3.553 l-0.034024 -2.3474 l4.6948 -0.06828 l0.034258 2.3474 c0.036641 2.5258 -0.98144 4.978 -2.8667 6.9048 c-0.717 0.73244 -1.6788 1.5166 -2.9472 2.2237 c1.0942 0.60424 2.0639 1.3239 2.8871 2.1531 z"/>
  </g>
  <g id="SvgjsG2087" featurekey="sloganFeature-0" transform="matrix(0.7440676887306185,0,0,0.7440676887306185,137.75807676379472,86.26249407774374)" fill="url(#SvgjsLinearGradient2101)">
    <path d="M16.153 10.8272 c0.95568 0.96942 1.4718 2.2114 1.4534 3.497 c-0.02289 1.5915 -0.78998 3.0436 -2.16 4.0892 c-1.4271 1.089 -3.4354 1.6646 -5.8082 1.6646 c-4.5288 0 -6.808 -0.0667 -6.8304 -0.067344 l-1.1387 -0.03414 l0 -11.373 l7.9691 0 c3.5728 0 5.5148 1.2092 6.5148 2.2236 z M9.6384 17.7304 c3.8486 0 5.5962 -1.7276 5.6208 -3.4396 c0.009414 -0.66168 -0.25962 -1.2893 -0.77796 -1.8153 c-0.9689 -0.9829 -2.6888 -1.5241 -4.843 -1.5241 l-5.6214 0 l0 6.737 c1.09 0.018965 2.963 0.041992 5.6214 0.041992 z M23.2938 20.02461 l-2.3246 0 l0 -11.295 l2.3246 0 l0 11.295 z M42.43 14.394400000000001 c-0.019883 1.3657 -0.00015625 4.4302 0.00023438 4.4608 l0.0077148 1.1699 l-7.8979 0 c-2.3734 0 -4.3588 -0.53114 -5.7416 -1.5357 c-1.3856 -1.0067 -2.1486 -2.467 -2.1486 -4.112 c0 -1.3641 0.51466 -2.5964 1.4885 -3.563 c1.3944 -1.3842 3.6104 -2.1058 6.4102 -2.0846 c1.7076 0.012559 6.6666 0.00013672 6.7164 0 l1.1622 -0.0030078 l0.005879 2.3246 l-1.1622 0.0030078 c-0.050098 0.00013672 -5.0206 0.012695 -6.7396 0 c-2.1376 -0.016875 -3.824 0.4851 -4.7556 1.4098 c-0.53204 0.52812 -0.80174 1.1717 -0.80174 1.9133 c0 2.0496 2.1326 3.323 5.5658 3.323 l5.5599 0 c-0.0024804 -0.63696 -0.0043164 -1.4395 -0.0024804 -2.1608 l-4.4771 0 l0 -2.3246 l6.8269 0 z M48.1338 20.02461 l-2.3246 0 l0 -11.295 l2.3246 0 l0 11.295 z M51.4892 8.475 l15.938 0 l0 2.3477 l-6.7954 0 l0 9.0932 l-2.3476 0 l0 -9.0932 l-6.7946 0 l0 -2.3477 z M74.9554 7.711 l9.1766 12.19 l-2.9508 0 l-2.566 -3.3974 l-7.3197 0 l-2.5286 3.3974 l-2.9177 0 z M73.0562 14.1556 l3.7983 0 l-1.8992 -2.5322 z M88.897 17.619 l13.59 0 l0 2.3477 l-15.938 0 l0 -11.407 l2.3477 0 l0 9.0597 z M122.69800000000001 14.0628 l7.9688 -5.3126 l0 11.25 l-2.3477 0 l0 -6.8631 l-5.621 3.7472 l-5.621 -3.7472 l0 6.8631 l-2.3477 0 l0 -11.25 z M136.3338 20.02461 l-2.3246 0 l0 -11.295 l2.3246 0 l0 11.295 z M153.279 8.593 l2.3476 0 l0 11.25 l-13.59 -7.098 l0 7.2556 l-2.3477 0 l0 -11.25 l13.59 7.098 l0 -7.2556 z M161.2938 20.02461 l-2.3246 0 l0 -11.295 l2.3246 0 l0 11.295 z M178.23900000000003 8.593 l2.3476 0 l0 11.25 l-13.59 -7.098 l0 7.2556 l-2.3477 0 l0 -11.25 l13.59 7.098 l0 -7.2556 z M199.71 14.394400000000001 c-0.019883 1.3657 -0.00015625 4.4302 0.00023438 4.4608 l0.0077148 1.1699 l-7.8979 0 c-2.3734 0 -4.3588 -0.53114 -5.7416 -1.5357 c-1.3856 -1.0067 -2.1486 -2.467 -2.1486 -4.112 c0 -1.3641 0.51466 -2.5964 1.4885 -3.563 c1.3944 -1.3842 3.6104 -2.1058 6.4102 -2.0846 c1.7076 0.012559 6.6666 0.00013672 6.7164 0 l1.1622 -0.0030078 l0.005879 2.3246 l-1.1622 0.0030078 c-0.050098 0.00013672 -5.0206 0.012695 -6.7396 0 c-2.1376 -0.016875 -3.824 0.4851 -4.7556 1.4098 c-0.53204 0.52812 -0.80174 1.1717 -0.80174 1.9133 c0 2.0496 2.1326 3.323 5.5658 3.323 l5.5599 0 c-0.0024804 -0.63696 -0.0043164 -1.4395 -0.0024804 -2.1608 l-4.4771 0 l0 -2.3246 l6.8269 0 z"/>
  </g>
</svg>